<?xml version="1.0" encoding="UTF-8" standalone="no"?>
<!DOCTYPE svg PUBLIC "-//W3C//DTD SVG 1.1//EN" "http://www.w3.org/Graphics/SVG/1.1/DTD/svg11.dtd">
<svg width="100%" height="100%" viewBox="0 0 438 102" version="1.1" xmlns="http://www.w3.org/2000/svg" xmlns:xlink="http://www.w3.org/1999/xlink" xml:space="preserve" xmlns:serif="http://www.serif.com/" style="fill-rule:evenodd;clip-rule:evenodd;stroke-linejoin:round;stroke-miterlimit:2;">
    <g transform="matrix(1,0,0,1,-5,-316)">
        <g transform="matrix(1,0,0,1,5.39753,0)">
            <g id="Text-Only" serif:id="Text Only" transform="matrix(0.226988,0,0,0.226988,34.2934,-0.0679602)">
                <rect x="-151.08" y="1395.3" width="1926.16" height="443.817" style="fill:none;"/>
                <clipPath id="_clip1">
                    <rect x="-151.08" y="1395.3" width="1926.16" height="443.817"/>
                </clipPath>
                <g clip-path="url(#_clip1)">
                    <g transform="matrix(1,0,0,1,-152.99,0)">
                        <g transform="matrix(1.3641,0,0,1.3641,-2837.65,-527.833)">
                            <g transform="matrix(154.111,0,0,154.111,2109.38,1521.36)">
                                <path d="M0.972,-0.72C0.929,-0.603 0.883,-0.474 0.84,-0.358L0.815,-0.291L0.657,-0.72L0.514,-0.72C0.471,-0.603 0.425,-0.474 0.382,-0.358L0.357,-0.291L0.2,-0.72L0.035,-0.72L0.297,-0L0.416,-0C0.448,-0.091 0.487,-0.194 0.521,-0.287L0.585,-0.463L0.755,-0L0.874,-0L1.136,-0.72L0.972,-0.72Z" style="fill:rgb(73,75,92);fill-rule:nonzero;"/>
                            </g>
                            <g transform="matrix(154.111,0,0,154.111,2291.07,1521.36)">
                                <path d="M0.723,-0.72L0.058,-0.72L0.058,-0L0.723,-0L0.723,-0.156L0.215,-0.156L0.215,-0.282L0.624,-0.282L0.624,-0.438L0.215,-0.438L0.215,-0.564L0.723,-0.564L0.723,-0.72Z" style="fill:rgb(73,75,92);fill-rule:nonzero;"/>
                            </g>
                            <g transform="matrix(154.111,0,0,154.111,2409.12,1521.36)">
                                <path d="M0.771,-0.572C0.771,-0.654 0.704,-0.72 0.623,-0.72L0.199,-0.72C0.117,-0.72 0.051,-0.654 0.051,-0.572L0.051,-0.43C0.051,-0.348 0.117,-0.282 0.199,-0.282L0.614,-0.282L0.614,-0.156L0.206,-0.156L0.206,-0.215L0.051,-0.215L0.051,-0.148C0.051,-0.066 0.117,-0 0.199,-0L0.623,-0C0.704,-0 0.771,-0.066 0.771,-0.148L0.771,-0.29C0.771,-0.372 0.704,-0.438 0.623,-0.438L0.206,-0.438L0.206,-0.564L0.614,-0.564L0.614,-0.505L0.771,-0.505L0.771,-0.572Z" style="fill:rgb(73,75,92);fill-rule:nonzero;"/>
                            </g>
                            <g transform="matrix(154.111,0,0,154.111,2535.8,1521.36)">
                                <path d="M0.02,-0.72L0.02,-0.564L0.302,-0.564L0.302,-0L0.458,-0L0.458,-0.564L0.74,-0.564L0.74,-0.72L0.02,-0.72Z" style="fill:rgb(73,75,92);fill-rule:nonzero;"/>
                            </g>
                        </g>
                        <g transform="matrix(1.3641,0,0,1.3641,-2837.65,-527.833)">
                            <g transform="matrix(154.111,0,0,154.111,2704.86,1521.36)">
                                <path d="M0.206,-0.72C0.124,-0.72 0.058,-0.654 0.058,-0.572L0.058,-0L0.213,-0L0.213,-0.232L0.621,-0.232L0.621,-0L0.778,-0L0.778,-0.572C0.778,-0.654 0.711,-0.72 0.629,-0.72L0.206,-0.72ZM0.213,-0.388L0.213,-0.564L0.621,-0.564L0.621,-0.388L0.213,-0.388Z" style="fill:rgb(73,75,92);fill-rule:nonzero;"/>
                            </g>
                            <g transform="matrix(154.111,0,0,154.111,2833.7,1521.36)">
                                <path d="M0.771,-0.572C0.771,-0.654 0.704,-0.72 0.623,-0.72L0.199,-0.72C0.117,-0.72 0.051,-0.654 0.051,-0.572L0.051,-0.43C0.051,-0.348 0.117,-0.282 0.199,-0.282L0.614,-0.282L0.614,-0.156L0.206,-0.156L0.206,-0.215L0.051,-0.215L0.051,-0.148C0.051,-0.066 0.117,-0 0.199,-0L0.623,-0C0.704,-0 0.771,-0.066 0.771,-0.148L0.771,-0.29C0.771,-0.372 0.704,-0.438 0.623,-0.438L0.206,-0.438L0.206,-0.564L0.614,-0.564L0.614,-0.505L0.771,-0.505L0.771,-0.572Z" style="fill:rgb(73,75,92);fill-rule:nonzero;"/>
                            </g>
                            <g transform="matrix(154.111,0,0,154.111,2960.38,1521.36)">
                                <path d="M0.637,-0.72L0.637,-0.438L0.212,-0.438L0.212,-0.72L0.057,-0.72L0.057,-0L0.212,-0L0.212,-0.282L0.637,-0.282L0.637,-0L0.792,-0L0.792,-0.72L0.637,-0.72Z" style="fill:rgb(73,75,92);fill-rule:nonzero;"/>
                            </g>
                            <g transform="matrix(154.111,0,0,154.111,3091.53,1521.36)">
                                <path d="M0.057,-0L0.777,-0L0.777,-0.156L0.212,-0.156L0.212,-0.721L0.057,-0.721L0.057,-0Z" style="fill:rgb(73,75,92);fill-rule:nonzero;"/>
                            </g>
                            <g transform="matrix(154.111,0,0,154.111,3211.58,1521.36)">
                                <path d="M0.723,-0.72L0.058,-0.72L0.058,-0L0.723,-0L0.723,-0.156L0.215,-0.156L0.215,-0.282L0.624,-0.282L0.624,-0.438L0.215,-0.438L0.215,-0.564L0.723,-0.564L0.723,-0.72Z" style="fill:rgb(73,75,92);fill-rule:nonzero;"/>
                            </g>
                            <g transform="matrix(154.111,0,0,154.111,3329.63,1521.36)">
                                <path d="M0.653,-0.72C0.581,-0.628 0.501,-0.528 0.428,-0.436L0.202,-0.72L0.017,-0.72C0.073,-0.643 0.156,-0.529 0.219,-0.445L0.35,-0.269L0.35,-0L0.506,-0L0.506,-0.268L0.84,-0.72L0.653,-0.72Z" style="fill:rgb(73,75,92);fill-rule:nonzero;"/>
                            </g>
                        </g>
                        <g transform="matrix(1.14718,0,0,1.14718,-2676.53,-38.3752)">
                            <g transform="matrix(288,0,0,288,2318.97,1636.62)">
                                <path d="M0.775,-0.571C0.775,-0.652 0.708,-0.719 0.626,-0.719L0.055,-0.719L0.055,-0L0.21,-0L0.21,-0.231C0.211,-0.23 0.213,-0.23 0.213,-0.23C0.213,-0.234 0.212,-0.236 0.21,-0.236L0.416,-0.237L0.615,-0L0.775,-0L0.775,-0.053C0.725,-0.113 0.67,-0.177 0.619,-0.237L0.626,-0.237C0.708,-0.237 0.775,-0.304 0.775,-0.385L0.775,-0.571ZM0.21,-0.564L0.618,-0.564L0.618,-0.393L0.21,-0.393L0.21,-0.564Z" style="fill:rgb(115,27,197);fill-rule:nonzero;"/>
                            </g>
                            <g transform="matrix(288,0,0,288,2556.57,1636.62)">
                                <path d="M0.202,-0.72C0.12,-0.72 0.054,-0.654 0.054,-0.572L0.054,-0.148C0.054,-0.066 0.12,-0 0.202,-0L0.626,-0C0.707,-0 0.774,-0.066 0.774,-0.148L0.774,-0.572C0.774,-0.654 0.707,-0.72 0.626,-0.72L0.202,-0.72ZM0.209,-0.564L0.617,-0.564L0.617,-0.156L0.209,-0.156L0.209,-0.564Z" style="fill:rgb(115,27,197);fill-rule:nonzero;"/>
                            </g>
                            <g transform="matrix(288,0,0,288,2795.03,1636.62)">
                                <path d="M0.751,-0.572C0.751,-0.654 0.684,-0.72 0.603,-0.72L0.059,-0.72L0.059,-0L0.63,-0C0.712,-0 0.779,-0.066 0.779,-0.148L0.779,-0.297C0.779,-0.331 0.764,-0.366 0.744,-0.391C0.749,-0.404 0.751,-0.42 0.751,-0.437L0.751,-0.572ZM0.214,-0.288L0.622,-0.288L0.622,-0.156L0.214,-0.156L0.214,-0.288ZM0.214,-0.564L0.594,-0.564L0.594,-0.444L0.214,-0.444L0.214,-0.564Z" style="fill:rgb(115,27,197);fill-rule:nonzero;"/>
                            </g>
                            <g transform="matrix(288,0,0,288,3034.65,1636.62)">
                                <path d="M0.202,-0.72C0.12,-0.72 0.054,-0.654 0.054,-0.572L0.054,-0.148C0.054,-0.066 0.12,-0 0.202,-0L0.626,-0C0.707,-0 0.774,-0.066 0.774,-0.148L0.774,-0.572C0.774,-0.654 0.707,-0.72 0.626,-0.72L0.202,-0.72ZM0.209,-0.564L0.617,-0.564L0.617,-0.156L0.209,-0.156L0.209,-0.564Z" style="fill:rgb(115,27,197);fill-rule:nonzero;"/>
                            </g>
                            <g transform="matrix(288,0,0,288,3273.11,1636.62)">
                                <path d="M0.02,-0.72L0.02,-0.564L0.302,-0.564L0.302,-0L0.458,-0L0.458,-0.564L0.74,-0.564L0.74,-0.72L0.02,-0.72Z" style="fill:rgb(115,27,197);fill-rule:nonzero;"/>
                            </g>
                            <g transform="matrix(288,0,0,288,3491.7,1636.62)">
                                <rect x="0.057" y="-0.72" width="0.156" height="0.72" style="fill:rgb(115,27,197);fill-rule:nonzero;"/>
                            </g>
                            <g transform="matrix(288,0,0,288,3555.06,1636.62)">
                                <path d="M0.774,-0.564L0.774,-0.72L0.204,-0.72C0.122,-0.72 0.056,-0.654 0.056,-0.572L0.056,-0.148C0.056,-0.066 0.122,-0 0.204,-0L0.774,-0L0.774,-0.156L0.211,-0.156L0.211,-0.564L0.774,-0.564Z" style="fill:rgb(115,27,197);fill-rule:nonzero;"/>
                            </g>
                            <g transform="matrix(288,0,0,288,3791.8,1636.62)">
                                <path d="M0.771,-0.572C0.771,-0.654 0.704,-0.72 0.623,-0.72L0.199,-0.72C0.117,-0.72 0.051,-0.654 0.051,-0.572L0.051,-0.43C0.051,-0.348 0.117,-0.282 0.199,-0.282L0.614,-0.282L0.614,-0.156L0.206,-0.156L0.206,-0.215L0.051,-0.215L0.051,-0.148C0.051,-0.066 0.117,-0 0.199,-0L0.623,-0C0.704,-0 0.771,-0.066 0.771,-0.148L0.771,-0.29C0.771,-0.372 0.704,-0.438 0.623,-0.438L0.206,-0.438L0.206,-0.564L0.614,-0.564L0.614,-0.505L0.771,-0.505L0.771,-0.572Z" style="fill:rgb(115,27,197);fill-rule:nonzero;"/>
                            </g>
                        </g>
                    </g>
                </g>
            </g>
        </g>
    </g>
</svg>
